<svg xmlns="http://www.w3.org/2000/svg" width="720" height="316" viewBox="0 0 720 316" role="img" aria-label="All deployed JS (KiB)"><title>All deployed JS (KiB)</title><rect width="720" height="316" fill="white"/><g font-family="system-ui,sans-serif" font-size="12" fill="#172033"><text x="12" y="26" font-size="16" font-weight="600">All deployed JS (KiB)</text><text x="12" y="48" font-size="11">10 of 1,000 APIs · lower is smaller</text><g transform="translate(0 56)"><line x1="228" y1="12" x2="228" y2="228" stroke="#cad0d9"/><text x="228" y="251" text-anchor="start" font-size="11">0 KiB</text><line x1="426" y1="12" x2="426" y2="228" stroke="#cad0d9"/><text x="426" y="251" text-anchor="middle" font-size="11">660.12 KiB</text><line x1="624" y1="12" x2="624" y2="228" stroke="#cad0d9"/><text x="624" y="251" text-anchor="end" font-size="11">1,320.25 KiB</text><g><title>Root selection: 98.33 KiB</title><text x="12" y="34">Root selection</text><rect x="228" y="24" width="29.49352264404297" height="12" rx="2" fill="#0f766e"/><text x="712" y="34" text-anchor="end">98.33 KiB</text></g><g><title>Named selection: 66.62 KiB</title><text x="12" y="70">Named selection</text><rect x="228" y="60" width="19.981136322021484" height="12" rx="2" fill="#0f766e"/><text x="712" y="70" text-anchor="end">66.62 KiB</text></g><g><title>Full + static loader: 72.61 KiB</title><text x="12" y="106">Full + static loader</text><rect x="228" y="96" width="21.77787208557129" height="12" rx="2" fill="#0f766e"/><text x="712" y="106" text-anchor="end">72.61 KiB</text></g><g><title>Selection + static loader: 72.57 KiB</title><text x="12" y="142">Selection + static loader</text><rect x="228" y="132" width="21.767620086669922" height="12" rx="2" fill="#0f766e"/><text x="712" y="142" text-anchor="end">72.57 KiB</text></g><g><title>Full + dynamic lookup: 1,222.45 KiB</title><text x="12" y="178">Full + dynamic lookup</text><rect x="228" y="168" width="366.6666564941406" height="12" rx="2" fill="#0f766e"/><text x="712" y="178" text-anchor="end">1,222.45 KiB</text></g><g><title>Selection + dynamic lookup: 76.99 KiB</title><text x="12" y="214">Selection + dynamic lookup</text><rect x="228" y="204" width="23.093055725097656" height="12" rx="2" fill="#0f766e"/><text x="712" y="214" text-anchor="end">76.99 KiB</text></g></g></g></svg>
